<?xml version="1.0" encoding="UTF-8" standalone="no"?> <svg id="Layer_1" data-name="Layer 1" xmlns="http://www.w3.org/2000/svg" viewBox="0 0 512 512"><title>Review</title><path d="M256,21.333C126.6,21.333,21.333,126.6,21.333,256S126.6,490.667,256,490.667,490.667,385.4,490.667,256,385.4,21.333,256,21.333ZM393.08,228.206l-56.655,61.627,9.611,83.157A9.872,9.872,0,0,1,332.119,383.1L256,348.267,179.881,383.1a9.872,9.872,0,0,1-13.918-10.113l9.611-83.157L118.92,228.206a9.876,9.876,0,0,1,5.319-16.365l82.055-16.556,41.1-72.924a9.875,9.875,0,0,1,17.207,0l41.1,72.924,82.055,16.556a9.876,9.876,0,0,1,5.319,16.365Z"/></svg>